<svg xmlns="http://www.w3.org/2000/svg" width="229.782" height="188.694" viewBox="0 0 229.782 188.694"><defs><style>.a{fill:#fff;}.b{fill:#211715;}</style></defs><path class="a" d="M14.882,170.851v-34.97q-5.973-2.535-11.9-5.166a1.015,1.015,0,0,1-.37-1.571A130.509,130.509,0,0,1,20.4,111.525v-6.509H15.156V52.649l-.535-.346a3.039,3.039,0,0,1-4.451-2.677V41.674a1,1,0,0,1,.5-.867l66.3-38.278a.9.9,0,0,1,.456-.121H214.1a6.994,6.994,0,0,1,6.994,7V74.145l.063-.036a4.15,4.15,0,0,1,6.227,3.594v26.974a1,1,0,0,1-.5.869l-6.061,3.5V145.26q-35.544,20.508-71.079,41.029H15.885a1,1,0,0,1-1-1c0-2.453,0-4.911,0-7.329Z"/><path class="b" d="M11.421,43.353H149.744c3.088,0,3.093-4.8,0-4.8H11.421c-3.089,0-3.094,4.8,0,4.8Z"/><path class="b" d="M214.1.008H79.012c-.467,0-.938-.018-1.405,0-1.655.065-3.078,1.156-4.476,1.964L37.363,22.622,10.015,38.412a3.923,3.923,0,0,0-2.246,3.272c-.053.907,0,1.833,0,2.741,0,2.268-.46,5.233.475,7.369,1.089,2.487,3.407,3.244,5.935,3.244H88.016c3.089,0,3.094-4.8,0-4.8H15.672c-1.081,0-2.9.526-3.1-.735a19.379,19.379,0,0,1,0-2.99V42.565a3.19,3.19,0,0,0,0-.851c-.038-.115-1.129,1.245-.527,1.071a1.806,1.806,0,0,0,.323-.187l1.54-.889,4.9-2.827L34.2,29.994,70.635,8.956l3.7-2.139a31.177,31.177,0,0,0,3.384-1.954c.57-.437-.576-.13-.164-.055a2.861,2.861,0,0,0,.481,0H214.1c3.088,0,3.093-4.8,0-4.8Z"/><path class="b" d="M212.886,147.063q-25.053,14.46-50.1,28.924l-14.254,8.229,1.212-.327H17.1c-.3,0-.607-.027-.9,0a1.811,1.811,0,0,0-.221,0c-.021,0-.045-.006-.066,0h-.02q-.834,0,1.394.905a9.075,9.075,0,0,0,0-2.454V148.35c0-3.088-4.8-3.093-4.8,0v33.5c0,2.038-.5,4.735,1.356,6.13a3.708,3.708,0,0,0,2.092.709c.23.012.464,0,.7,0H149.1c.2,0,.41.011.612,0,1.235-.07,2.357-.974,3.4-1.575l5.616-3.242,45.352-26.182,11.231-6.482c2.675-1.544.26-5.693-2.423-4.145Z"/><path class="b" d="M186.58,96.841,212.5,81.877c2.674-1.544.26-5.694-2.423-4.145L184.158,92.7c-2.675,1.544-.26,5.694,2.422,4.145Z"/><path class="b" d="M197.076,125.525l21.429-12.372c3.1-1.789,6.253-3.508,9.307-5.373a4.178,4.178,0,0,0,1.97-3.927V83.945c0-3.089-4.8-3.094-4.8,0v18.414a13.5,13.5,0,0,0,0,2.011c.006.035-.03.282,0,.3-.31-.217,1.205-1.225.561-1.126a4.114,4.114,0,0,0-1.035.6l-1.86,1.074-5.571,3.216-13.832,7.987-8.592,4.96c-2.674,1.544-.26,5.693,2.423,4.144Z"/><path class="b" d="M168.679,90.938l35.8-20.671c2.675-1.544.26-5.693-2.422-4.144l-35.8,20.67c-2.675,1.544-.261,5.694,2.422,4.145Z"/><path class="b" d="M150.951,43.025l49.916-28.819,14.2-8.2c2.674-1.544.26-5.693-2.423-4.144L162.728,30.682l-14.2,8.2c-2.674,1.544-.26,5.694,2.423,4.145Z"/><path class="b" d="M172.535,67.6l36.639-21.153c2.674-1.544.26-5.694-2.423-4.145L170.112,63.451c-2.674,1.544-.26,5.693,2.423,4.144Z"/><path class="b" d="M218.692,23.373v51c0,3.088,4.8,3.093,4.8,0v-51c0-3.089-4.8-3.094-4.8,0Z"/><path class="b" d="M218.419,109.278v36.1c0,3.088,4.8,3.093,4.8,0v-36.1c0-3.088-4.8-3.093-4.8,0Z"/><path class="b" d="M155.794,58.1v51c0,3.088,4.8,3.093,4.8,0v-51c0-3.089-4.8-3.094-4.8,0Z"/><path class="b" d="M148.8,43.472v9.845a2.4,2.4,0,0,0,4.8,0V43.472a2.4,2.4,0,1,0-4.8,0Z"/><path class="b" d="M162.083,118.675v19.142c0,3.089,4.8,3.094,4.8,0V118.675c0-3.089-4.8-3.094-4.8,0Z"/><path class="b" d="M155.52,144.008v29.068c0,3.088,4.8,3.093,4.8,0V144.008c0-3.088-4.8-3.093-4.8,0Z"/><path class="b" d="M12.756,54.4V103.39c0,3.088,4.8,3.094,4.8,0V54.4c0-3.088-4.8-3.093-4.8,0Z"/><path class="b" d="M64.621,71.956h69.54c3.089,0,3.094-4.8,0-4.8H132.1c-3.088,0-3.093,4.8,0,4.8h2.06v-4.8H64.621c-3.089,0-3.094,4.8,0,4.8Z"/><path class="b" d="M15.156,107.417H141.379c3.088,0,3.093-4.8,0-4.8H15.156c-3.089,0-3.094,4.8,0,4.8Z"/><path class="b" d="M91.116,162.809h47.11c3.088,0,3.093-4.8,0-4.8H91.116c-3.088,0-3.093,4.8,0,4.8Z"/><path class="b" d="M73.181,89.687H120.29c3.089,0,3.094-4.8,0-4.8H73.181c-3.088,0-3.094,4.8,0,4.8Z"/><path class="b" d="M18.7,109.827A132.53,132.53,0,0,0,6.36,121.308c-1.874,1.983-3.738,4.008-5.444,6.139a3.529,3.529,0,0,0-.467,4.065c.78,1.333,2.463,1.783,3.79,2.367,11.046,4.863,22.215,9.443,33.374,14.039,8.759,3.607,17.666,6.734,26.544,10.029,1.911.709,4.2,2.063,6.278,1.838,2.757-.3,4.532-3.259,6.25-5.158q5.46-6.033,11.089-11.911,13.022-13.563,27.064-26.083c2.306-2.065-1.1-5.45-3.394-3.394A510.837,510.837,0,0,0,74.051,150.4q-1.068,1.176-2.131,2.358a20.124,20.124,0,0,1-2.042,2.291c-.1.083.111.03.189.022a2.139,2.139,0,0,1-.615-.215c-.289-.108-.575-.226-.863-.338q-1.243-.483-2.494-.949c-3.462-1.293-6.946-2.529-10.423-3.78-7.5-2.7-14.858-5.7-22.228-8.737q-7.43-3.061-14.837-6.169-3.618-1.527-7.223-3.084-1.914-.827-3.824-1.665-.9-.393-1.8-.79a5.14,5.14,0,0,1-1.546-.735l.618,1.059q-.572,1.375.06.479.294-.348.591-.695.444-.519.894-1.034,1.05-1.2,2.13-2.376,2.082-2.267,4.268-4.433,4.455-4.413,9.316-8.382a2.418,2.418,0,0,0,0-3.395,2.455,2.455,0,0,0-3.394,0Z"/></svg>